{
  "accessors": [
    {
      "bufferView": 2,
      "componentType": 5126,
      "count": 223,
      "max": [
        1.1657381057739258,
        3.673837423324585,
        2.689990520477295
      ],
      "min": [
        -1.5982111692428589,
        0.8477500677108765,
        -0.5368149876594543
      ],
      "type": "VEC3"
    },
    {
      "bufferView": 2,
      "byteOffset": 2676,
      "componentType": 5126,
      "count": 223,
      "max": [
        1.0,
        0.9984049201011658,
        0.9995477199554443
      ],
      "min": [
        -1.0,
        -0.9848082065582275,
        -0.9899295568466187
      ],
      "type": "VEC3"
    },
    {
      "bufferView": 1,
      "componentType": 5126,
      "count": 223,
      "max": [
        0.875,
        1.0
      ],
      "min": [
        0.125,
        0.0
      ],
      "type": "VEC2"
    },
    {
      "bufferView": 0,
      "componentType": 5125,
      "count": 405,
      "type": "SCALAR"
    },
    {
      "bufferView": 2,
      "byteOffset": 5352,
      "componentType": 5126,
      "count": 1061,
      "max": [
        4.5947465896606445,
        4.807432651519775,
        1.750330924987793
      ],
      "min": [
        -4.415213108062744,
        -0.4461476802825928,
        -0.8261886835098267
      ],
      "type": "VEC3"
    },
    {
      "bufferView": 2,
      "byteOffset": 18084,
      "componentType": 5126,
      "count": 1061,
      "max": [
        1.0,
        1.0,
        1.0
      ],
      "min": [
        -1.0,
        -1.0,
        -1.0
      ],
      "type": "VEC3"
    },
    {
      "bufferView": 1,
      "byteOffset": 1784,
      "componentType": 5126,
      "count": 1061,
      "max": [
        0.9428477883338928,
        1.0
      ],
      "min": [
        0.125,
        0.0
      ],
      "type": "VEC2"
    },
    {
      "bufferView": 0,
      "byteOffset": 1620,
      "componentType": 5125,
      "count": 2403,
      "type": "SCALAR"
    },
    {
      "bufferView": 2,
      "byteOffset": 30816,
      "componentType": 5126,
      "count": 79,
      "max": [
        0.6040268540382385,
        0.4667189419269562,
        0.6451684236526489
      ],
      "min": [
        -0.6040267944335938,
        -0.7413346767425537,
        -0.5628852844238281
      ],
      "type": "VEC3"
    },
    {
      "bufferView": 2,
      "byteOffset": 31764,
      "componentType": 5126,
      "count": 79,
      "max": [
        1.0,
        1.0,
        1.0
      ],
      "min": [
        -1.0,
        -1.0,
        -1.0
      ],
      "type": "VEC3"
    },
    {
      "bufferView": 1,
      "byteOffset": 10272,
      "componentType": 5126,
      "count": 79,
      "max": [
        1.0,
        1.0
      ],
      "min": [
        0.0,
        0.0
      ],
      "type": "VEC2"
    },
    {
      "bufferView": 0,
      "byteOffset": 11232,
      "componentType": 5125,
      "count": 336,
      "type": "SCALAR"
    }
  ],
  "asset": {
    "extras": {
      "author": "Yulyolya (https://sketchfab.com/julia_karpovich)",
      "license": "CC-BY-4.0 (http://creativecommons.org/licenses/by/4.0/)",
      "source": "https://sketchfab.com/3d-models/monster-draft-40-min-6e39eb83f6654e3290e6363a3740e114",
      "title": "Monster_draft_40_min"
    },
    "generator": "Sketchfab-12.67.0",
    "version": "2.0"
  },
  "bufferViews": [
    {
      "buffer": 0,
      "byteLength": 12576,
      "name": "floatBufferViews",
      "target": 34963
    },
    {
      "buffer": 0,
      "byteLength": 10904,
      "byteOffset": 12576,
      "byteStride": 8,
      "name": "floatBufferViews",
      "target": 34962
    },
    {
      "buffer": 0,
      "byteLength": 32712,
      "byteOffset": 23480,
      "byteStride": 12,
      "name": "floatBufferViews",
      "target": 34962
    }
  ],
  "buffers": [
    {
      "byteLength": 56192,
      "uri": "scene.bin"
    }
  ],
  "materials": [
    {
      "doubleSided": true,
      "emissiveFactor": [
        0.024034853201210397,
        0.5797154621751479,
        0.0
      ],
      "name": "green",
      "pbrMetallicRoughness": {
        "baseColorFactor": [
          0.008568010000000008,
          0.679556,
          0.01938220000000001,
          1.0
        ],
        "metallicFactor": 0.0,
        "roughnessFactor": 0.6
      }
    },
    {
      "doubleSided": true,
      "name": "black",
      "pbrMetallicRoughness": {
        "baseColorFactor": [
          0.002241242153076324,
          0.0025107109990671977,
          0.04167169351225248,
          1.0
        ],
        "metallicFactor": 0.44203358776164503,
        "roughnessFactor": 0.6
      }
    }
  ],
  "meshes": [
    {
      "name": "pCube71_green_0",
      "primitives": [
        {
          "attributes": {
            "NORMAL": 1,
            "POSITION": 0,
            "TEXCOORD_0": 2
          },
          "indices": 3,
          "material": 0,
          "mode": 4
        }
      ]
    },
    {
      "name": "pCube71_black_0",
      "primitives": [
        {
          "attributes": {
            "NORMAL": 5,
            "POSITION": 4,
            "TEXCOORD_0": 6
          },
          "indices": 7,
          "material": 1,
          "mode": 4
        }
      ]
    },
    {
      "name": "pSphere1_green_0",
      "primitives": [
        {
          "attributes": {
            "NORMAL": 9,
            "POSITION": 8,
            "TEXCOORD_0": 10
          },
          "indices": 11,
          "material": 0,
          "mode": 4
        }
      ]
    }
  ],
  "nodes": [
    {
      "children": [
        1
      ],
      "matrix": [
        1.0,
        0.0,
        0.0,
        0.0,
        0.0,
        2.220446049250313e-16,
        -1.0,
        0.0,
        0.0,
        1.0,
        2.220446049250313e-16,
        0.0,
        0.0,
        0.0,
        0.0,
        1.0
      ],
      "name": "Sketchfab_model"
    },
    {
      "children": [
        2
      ],
      "matrix": [
        1.0,
        0.0,
        0.0,
        0.0,
        0.0,
        0.0,
        1.0,
        0.0,
        0.0,
        -1.0,
        0.0,
        0.0,
        0.0,
        0.0,
        0.0,
        1.0
      ],
      "name": "0328f71df7c84e8fa296330dd819c945.fbx"
    },
    {
      "children": [
        3,
        6
      ],
      "name": "RootNode"
    },
    {
      "children": [
        4,
        5
      ],
      "name": "pCube71"
    },
    {
      "mesh": 0,
      "name": "pCube71_green_0"
    },
    {
      "mesh": 1,
      "name": "pCube71_black_0"
    },
    {
      "children": [
        7
      ],
      "matrix": [
        1.0,
        0.0,
        0.0,
        0.0,
        0.0,
        1.0,
        0.0,
        0.0,
        0.0,
        0.0,
        1.0,
        0.0,
        -0.033557046204805374,
        1.6946308612823486,
        0.0,
        1.0
      ],
      "name": "pSphere1"
    },
    {
      "mesh": 2,
      "name": "pSphere1_green_0"
    }
  ],
  "scene": 0,
  "scenes": [
    {
      "name": "Sketchfab_Scene",
      "nodes": [
        0
      ]
    }
  ]
}
